<svg xmlns="http://www.w3.org/2000/svg" version="1.1" xmlns:xlink="http://www.w3.org/1999/xlink" xmlns:svgjs="http://svgjs.dev/svgjs" width="2000" height="1247" viewBox="0 0 2000 1247"><g transform="matrix(1,0,0,1,-1.2121212121212466,0.504858299595071)"><svg viewBox="0 0 396 247" data-background-color="#ffffff" preserveAspectRatio="xMidYMid meet" height="1247" width="2000" xmlns="http://www.w3.org/2000/svg" xmlns:xlink="http://www.w3.org/1999/xlink"><g id="tight-bounds" transform="matrix(1,0,0,1,0.2400000000000091,-0.09999999999999432)"><svg viewBox="0 0 395.52 247.2" height="247.2" width="395.52"><g><svg></svg></g><g><svg viewBox="0 0 395.52 247.2" height="247.2" width="395.52"><g transform="matrix(1,0,0,1,75.54432000000001,77.14728554455446)"><svg viewBox="0 0 244.43135999999996 92.90542891089106" height="92.90542891089106" width="244.43135999999996"><g><svg viewBox="0 0 244.43135999999996 92.90542891089106" height="92.90542891089106" width="244.43135999999996"><g><svg viewBox="0 0 244.43135999999996 92.90542891089106" height="92.90542891089106" width="244.43135999999996"><g><svg viewBox="0 0 244.43135999999996 92.90542891089106" height="92.90542891089106" width="244.43135999999996"><g id="textblocktransform"><svg viewBox="0 0 244.43135999999996 92.90542891089106" height="92.90542891089106" width="244.43135999999996" id="textblock"><g><svg viewBox="0 0 244.43135999999996 92.90542891089106" height="92.90542891089106" width="244.43135999999996"><g transform="matrix(1,0,0,1,0,0)"><svg width="244.43135999999996" viewBox="1.5 -34.15 90.9 34.55" height="92.90542891089106" data-palette-color="#0074d9"><path d="M16.6-33.65L16.6-10.2Q16.6-5.35 14.03-2.65 11.45 0.05 6.85 0.05L6.85 0.05Q3.4 0.05 1.5-0.95L1.5-0.95 1.5-7.75Q3.35-6.6 5.35-6.6L5.35-6.6Q8.9-6.6 8.9-10.4L8.9-10.4 8.9-33.65 16.6-33.65ZM30.85-13.05L29.8 0 22.1 0 25-33.7 33.45-33.7 38.15-21.5Q39.35-18.45 40.2-15.9 41.05-13.35 41.3-12.3L41.3-12.3 41.55-11.3Q42.35-14.6 45.05-21.5L45.05-21.5 49.8-33.7 58.25-33.7 61.75 0 54.05 0 52.8-13.05 52.15-22.9Q50.85-19.15 48.55-13.05L48.55-13.05 43.8-0.35 39.25-0.35 34.55-13.05Q33.4-16.15 32.6-18.6 31.8-21.05 31.55-22L31.55-22 31.3-22.9Q31.3-19.35 30.85-13.05L30.85-13.05ZM92.4-9.05L92.4-1.5Q89.34 0.4 83.59 0.4L83.59 0.4Q76.2 0.4 71.22-4.38 66.25-9.15 66.25-16.75L66.25-16.75Q66.25-24.45 71.07-29.3 75.9-34.15 83.65-34.15L83.65-34.15Q89.34-34.15 92.4-32.25L92.4-32.25 92.4-24.85Q88.65-27.15 84.05-27.15L84.05-27.15Q80-27.15 77.25-24.33 74.5-21.5 74.5-16.75L74.5-16.75Q74.5-12.1 77.25-9.38 80-6.65 84.34-6.65L84.34-6.65Q89.05-6.65 92.4-9.05L92.4-9.05Z" opacity="1" transform="matrix(1,0,0,1,0,0)" fill="#0074d9" class="wordmark-text-0" data-fill-palette-color="primary" id="text-0"></path></svg></g></svg></g></svg></g></svg></g></svg></g></svg></g></svg></g><g><path d="M0 123.6c0-68.262 55.338-123.6 123.6-123.6 47.535 0 88.803 26.834 109.482 66.181h-4.757c-20.302-36.949-59.589-61.992-104.725-61.992-65.949 0-119.411 53.462-119.411 119.411 0 65.949 53.462 119.411 119.411 119.411 45.136 0 84.423-25.043 104.725-61.992h4.757c-20.678 39.347-61.946 66.181-109.482 66.181-68.262 0-123.6-55.338-123.6-123.6z" fill="#0074d9" stroke="transparent" data-fill-palette-color="tertiary"></path></g></svg></g><defs></defs></svg><rect width="395.52" height="247.2" fill="none" stroke="none" visibility="hidden"></rect></g></svg></g></svg>